# xmcd CD Database Entry
#
# Track frame offsets:
# 150
# 17213
# 35481
# 55999
# 73699
# 92273
# 110715
# 128725
# 147463
# 164257
# 183782
#
# Disc length: 2708 seconds
#
# Revision: 2
# Processed by: cddbd v1.4PL0 Copyright (c) Steve Scherf et al.
# Submitted via: tcd 2.0b
#
DISCID=950a920b
DTITLE=Biagio Antonacci - 9/Nov./2001
DYEAR=1900
DGENRE=
TTITLE0=Angela
TTITLE1=Ritorno ad amare
TTITLE2=Solo due parole
TTITLE3=Che differenza c'e'
TTITLE4=Come se fossi un'isola
TTITLE5=Non tentarmi
TTITLE6=Sarebbe bello
TTITLE7=Ti ricordi perche'
TTITLE8=Se tornerai
TTITLE9=Volevo solo dirti che
TTITLE10=Io ho te
EXTD=
EXTT0=
EXTT1=
EXTT2=
EXTT3=
EXTT4=
EXTT5=
EXTT6=
EXTT7=
EXTT8=
EXTT9=
EXTT10=
PLAYORDER=
